# xmcd
#
# Track frame offsets:
#	182
#	10137
#	19852
#	33415
#	42532
#	55750
#	67165
#	86235
#	97905
#	109837
#	124205
#
# Disc length: 1780 seconds
#
# Revision: 2
# Processed by: cddbd v1.5.2PL0 Copyright (c) Steve Scherf et al.
# Submitted via: EZCDAudioConverter 2.0.7.1
#
DISCID=9306f20b
DTITLE=Tom T Hall - Greatest Hits (Vol. II)
DYEAR=1975
DGENRE=Country
TTITLE0=Country Is
TTITLE1=I Love
TTITLE2=The Little Lady Preacher
TTITLE3=Sneaky Snake
TTITLE4=I Like Beer
TTITLE5=Ravishing Ruby
TTITLE6=Old Dogs, Children And Watermelon Wine
TTITLE7=Deal
TTITLE8=Who's Gonna Feed Them Hogs
TTITLE9=That Song Is Driving Me Crazy
TTITLE10=I Care
EXTD=
EXTT0=
EXTT1=
EXTT2=
EXTT3=
EXTT4=
EXTT5=
EXTT6=
EXTT7=
EXTT8=
EXTT9=
EXTT10=
PLAYORDER=
